<svg xmlns="http://www.w3.org/2000/svg" width="199.04" height="35" viewBox="0 0 199.04 35"><rect class="svg__rect" x="0" y="0" width="97.04" height="35" fill="#31C4F3"/><rect class="svg__rect" x="95.04" y="0" width="103.99999999999999" height="35" fill="#389AD5"/><path class="svg__text" d="M19.57 22L14.22 22L14.22 13.47L15.70 13.47L15.70 20.82L19.57 20.82L19.57 22ZM23.56 19.16L23.56 19.16L23.56 13.47L25.04 13.47L25.04 19.18Q25.04 20.03 25.47 20.48Q25.91 20.93 26.75 20.93L26.75 20.93Q28.46 20.93 28.46 19.13L28.46 19.13L28.46 13.47L29.94 13.47L29.94 19.17Q29.94 20.53 29.07 21.32Q28.20 22.12 26.75 22.12L26.75 22.12Q25.29 22.12 24.42 21.33Q23.56 20.55 23.56 19.16ZM35.99 22L34.51 22L34.51 13.47L35.99 13.47L39.81 19.54L39.81 13.47L41.28 13.47L41.28 22L39.79 22L35.99 15.95L35.99 22ZM46.80 22L45.25 22L48.48 13.47L49.81 13.47L53.04 22L51.49 22L50.79 20.01L47.49 20.01L46.80 22ZM49.14 15.28L47.90 18.82L50.38 18.82L49.14 15.28ZM58.47 22L56.99 22L56.99 13.47L59.99 13.47Q61.47 13.47 62.27 14.13Q63.07 14.79 63.07 16.05L63.07 16.05Q63.07 16.90 62.66 17.48Q62.25 18.06 61.51 18.37L61.51 18.37L63.42 21.92L63.42 22L61.84 22L60.13 18.71L58.47 18.71L58.47 22ZM58.47 14.66L58.47 17.52L60.00 17.52Q60.75 17.52 61.17 17.15Q61.59 16.77 61.59 16.11L61.59 16.11Q61.59 15.43 61.20 15.05Q60.81 14.68 60.04 14.66L60.04 14.66L58.47 14.66ZM67.20 18.00L67.20 18.00L67.20 17.52Q67.20 16.28 67.64 15.32Q68.08 14.37 68.89 13.86Q69.69 13.35 70.74 13.35Q71.78 13.35 72.59 13.85Q73.39 14.35 73.83 15.29Q74.27 16.23 74.28 17.48L74.28 17.48L74.28 17.96Q74.28 19.21 73.84 20.16Q73.41 21.10 72.60 21.61Q71.80 22.12 70.75 22.12L70.75 22.12Q69.71 22.12 68.90 21.61Q68.09 21.10 67.65 20.17Q67.20 19.23 67.20 18.00ZM68.68 17.46L68.68 17.96Q68.68 19.36 69.23 20.13Q69.78 20.90 70.75 20.90L70.75 20.90Q71.73 20.90 72.26 20.15Q72.79 19.40 72.79 17.96L72.79 17.96L72.79 17.51Q72.79 16.09 72.26 15.34Q71.72 14.58 70.74 14.58L70.74 14.58Q69.78 14.58 69.23 15.33Q68.69 16.09 68.68 17.46L68.68 17.46ZM79.65 15.60L78.22 15.60Q78.24 14.56 78.93 13.96Q79.63 13.35 80.77 13.35L80.77 13.35Q81.95 13.35 82.60 13.95Q83.26 14.55 83.26 15.62L83.26 15.62Q83.26 16.57 82.37 17.50L82.37 17.50L81.65 18.21Q81.27 18.65 81.25 19.49L81.25 19.49L79.92 19.49Q79.92 18.71 80.12 18.25Q80.31 17.79 80.88 17.23Q81.45 16.68 81.61 16.45L81.61 16.45Q81.84 16.09 81.84 15.67L81.84 15.67Q81.84 15.12 81.57 14.83Q81.30 14.54 80.77 14.54L80.77 14.54Q80.26 14.54 79.96 14.83Q79.65 15.11 79.65 15.60L79.65 15.60ZM79.82 21.31L79.82 21.31Q79.82 20.97 80.04 20.75Q80.26 20.54 80.63 20.54L80.63 20.54Q81.00 20.54 81.22 20.76Q81.44 20.98 81.44 21.31L81.44 21.31Q81.44 21.64 81.22 21.85Q81.01 22.07 80.63 22.07Q80.24 22.07 80.03 21.85Q79.82 21.64 79.82 21.31Z" fill="#FFFFFF"/><path class="svg__text" d="M115.61 22L109.23 22L109.23 13.60L111.61 13.60L111.61 20.11L115.61 20.11L115.61 22ZM119.96 18.26L119.96 18.26L119.96 13.60L122.34 13.60L122.34 18.19Q122.34 20.20 123.93 20.20L123.93 20.20Q125.52 20.20 125.52 18.19L125.52 18.19L125.52 13.60L127.86 13.60L127.86 18.26Q127.86 20.13 126.82 21.15Q125.78 22.17 123.91 22.17L123.91 22.17Q122.04 22.17 121.00 21.15Q119.96 20.13 119.96 18.26ZM135.28 22L132.95 22L132.95 13.60L134.90 13.60L138.61 18.07L138.61 13.60L140.94 13.60L140.94 22L138.99 22L135.28 17.52L135.28 22ZM147.52 22L145.09 22L148.80 13.60L151.15 13.60L154.86 22L152.39 22L151.73 20.37L148.18 20.37L147.52 22ZM149.96 15.93L148.87 18.61L151.03 18.61L149.96 15.93ZM161.39 22L159.02 22L159.02 13.60L162.86 13.60Q164.00 13.60 164.84 13.98Q165.68 14.35 166.13 15.06Q166.59 15.76 166.59 16.71L166.59 16.71Q166.59 17.62 166.16 18.30Q165.74 18.98 164.94 19.36L164.94 19.36L166.76 22L164.21 22L162.69 19.77L161.39 19.77L161.39 22ZM161.39 15.47L161.39 17.93L162.71 17.93Q163.44 17.93 163.82 17.61Q164.19 17.29 164.19 16.71L164.19 16.71Q164.19 16.12 163.82 15.79Q163.44 15.47 162.71 15.47L162.71 15.47L161.39 15.47ZM170.95 17.80L170.95 17.80Q170.95 16.55 171.55 15.55Q172.16 14.56 173.22 14.00Q174.28 13.43 175.61 13.43L175.61 13.43Q176.94 13.43 178.01 14.00Q179.07 14.56 179.68 15.55Q180.28 16.55 180.28 17.80L180.28 17.80Q180.28 19.05 179.68 20.04Q179.07 21.04 178.01 21.60Q176.95 22.17 175.61 22.17L175.61 22.17Q174.28 22.17 173.22 21.60Q172.16 21.04 171.55 20.04Q170.95 19.05 170.95 17.80ZM173.35 17.80L173.35 17.80Q173.35 18.51 173.65 19.05Q173.95 19.60 174.47 19.90Q174.98 20.20 175.61 20.20L175.61 20.20Q176.25 20.20 176.77 19.90Q177.28 19.60 177.58 19.05Q177.88 18.51 177.88 17.80L177.88 17.80Q177.88 17.09 177.58 16.54Q177.28 16 176.77 15.70Q176.25 15.40 175.61 15.40L175.61 15.40Q174.98 15.40 174.46 15.70Q173.95 16 173.65 16.54Q173.35 17.09 173.35 17.80ZM184.50 20.75L184.50 20.75Q184.50 20.15 184.89 19.78Q185.28 19.41 185.87 19.41L185.87 19.41Q186.47 19.41 186.85 19.78Q187.23 20.15 187.23 20.75L187.23 20.75Q187.23 21.34 186.84 21.72Q186.45 22.11 185.87 22.11L185.87 22.11Q185.29 22.11 184.89 21.72Q184.50 21.34 184.50 20.75Z" fill="#FFFFFF" x="108.04"/></svg>