<svg xmlns="http://www.w3.org/2000/svg" width="256.76" height="35" viewBox="0 0 256.76 35"><rect class="svg__rect" x="0" y="0" width="46.31" height="35" fill="#31C4F3"/><rect class="svg__rect" x="44.31" y="0" width="212.45000000000002" height="35" fill="#389AD5"/><path class="svg__text" d="M15.70 22L14.22 22L14.22 13.47L15.70 13.47L19.51 19.54L19.51 13.47L20.98 13.47L20.98 22L19.50 22L15.70 15.95L15.70 22ZM25.46 18.00L25.46 18.00L25.46 17.52Q25.46 16.28 25.90 15.32Q26.34 14.37 27.15 13.86Q27.95 13.35 28.99 13.35Q30.04 13.35 30.84 13.85Q31.65 14.35 32.09 15.29Q32.53 16.23 32.53 17.48L32.53 17.48L32.53 17.96Q32.53 19.21 32.10 20.16Q31.67 21.10 30.86 21.61Q30.06 22.12 29.01 22.12L29.01 22.12Q27.97 22.12 27.16 21.61Q26.35 21.10 25.90 20.17Q25.46 19.23 25.46 18.00ZM26.94 17.46L26.94 17.96Q26.94 19.36 27.49 20.13Q28.03 20.90 29.01 20.90L29.01 20.90Q29.99 20.90 30.52 20.15Q31.05 19.40 31.05 17.96L31.05 17.96L31.05 17.51Q31.05 16.09 30.52 15.34Q29.98 14.58 28.99 14.58L28.99 14.58Q28.03 14.58 27.49 15.33Q26.95 16.09 26.94 17.46L26.94 17.46Z" fill="#FFFFFF"/><path class="svg__text" d="M60.58 22L57.85 13.60L60.30 13.60L61.99 18.96L63.77 13.60L65.95 13.60L67.64 19.01L69.41 13.60L71.68 13.60L68.95 22L66.41 22L64.80 16.89L63.12 22L60.58 22ZM78.57 22L76.19 22L76.19 13.60L78.57 13.60L78.57 22ZM86.07 22L83.74 22L83.74 13.60L85.70 13.60L89.41 18.07L89.41 13.60L91.73 13.60L91.73 22L89.78 22L86.07 17.52L86.07 22ZM100.87 22L96.89 22L96.89 13.60L100.87 13.60Q102.25 13.60 103.32 14.12Q104.38 14.63 104.97 15.58Q105.56 16.53 105.56 17.80L105.56 17.80Q105.56 19.07 104.97 20.02Q104.38 20.97 103.32 21.48Q102.25 22 100.87 22L100.87 22ZM99.27 15.50L99.27 20.10L100.77 20.10Q101.85 20.10 102.50 19.49Q103.16 18.88 103.16 17.80L103.16 17.80Q103.16 16.72 102.50 16.11Q101.85 15.50 100.77 15.50L100.77 15.50L99.27 15.50ZM109.86 17.80L109.86 17.80Q109.86 16.55 110.46 15.55Q111.07 14.56 112.13 14.00Q113.20 13.43 114.53 13.43L114.53 13.43Q115.86 13.43 116.92 14.00Q117.98 14.56 118.59 15.55Q119.20 16.55 119.20 17.80L119.20 17.80Q119.20 19.05 118.59 20.04Q117.98 21.04 116.92 21.60Q115.86 22.17 114.53 22.17L114.53 22.17Q113.20 22.17 112.13 21.60Q111.07 21.04 110.46 20.04Q109.86 19.05 109.86 17.80ZM112.26 17.80L112.26 17.80Q112.26 18.51 112.56 19.05Q112.86 19.60 113.38 19.90Q113.89 20.20 114.53 20.20L114.53 20.20Q115.16 20.20 115.68 19.90Q116.20 19.60 116.49 19.05Q116.79 18.51 116.79 17.80L116.79 17.80Q116.79 17.09 116.49 16.54Q116.20 16 115.68 15.70Q115.16 15.40 114.53 15.40L114.53 15.40Q113.89 15.40 113.37 15.70Q112.86 16 112.56 16.54Q112.26 17.09 112.26 17.80ZM126.00 22L123.28 13.60L125.73 13.60L127.42 18.96L129.19 13.60L131.38 13.60L133.07 19.01L134.83 13.60L137.10 13.60L134.38 22L131.83 22L130.23 16.89L128.55 22L126.00 22ZM141.03 21.24L141.03 21.24L141.81 19.49Q142.37 19.86 143.11 20.09Q143.86 20.32 144.58 20.32L144.58 20.32Q145.94 20.32 145.95 19.64L145.95 19.64Q145.95 19.28 145.56 19.11Q145.17 18.93 144.30 18.74L144.30 18.74Q143.35 18.53 142.72 18.30Q142.08 18.06 141.63 17.55Q141.17 17.03 141.17 16.16L141.17 16.16Q141.17 15.39 141.59 14.77Q142.01 14.15 142.85 13.79Q143.68 13.43 144.89 13.43L144.89 13.43Q145.71 13.43 146.52 13.62Q147.33 13.80 147.94 14.17L147.94 14.17L147.21 15.93Q146.01 15.28 144.88 15.28L144.88 15.28Q144.17 15.28 143.85 15.49Q143.52 15.70 143.52 16.04L143.52 16.04Q143.52 16.37 143.91 16.54Q144.29 16.71 145.14 16.89L145.14 16.89Q146.10 17.10 146.73 17.33Q147.36 17.56 147.82 18.07Q148.29 18.58 148.29 19.46L148.29 19.46Q148.29 20.21 147.87 20.83Q147.45 21.44 146.61 21.80Q145.77 22.17 144.57 22.17L144.57 22.17Q143.55 22.17 142.59 21.92Q141.62 21.67 141.03 21.24ZM164.38 22L159.84 22L159.84 13.60L164.14 13.60Q165.74 13.60 166.58 14.19Q167.42 14.79 167.42 15.79L167.42 15.79Q167.42 16.39 167.13 16.87Q166.83 17.34 166.29 17.62L166.29 17.62Q167.01 17.87 167.42 18.41Q167.83 18.94 167.83 19.70L167.83 19.70Q167.83 20.80 166.94 21.40Q166.05 22 164.38 22L164.38 22ZM162.19 18.58L162.19 20.28L164.18 20.28Q165.43 20.28 165.43 19.43L165.43 19.43Q165.43 18.58 164.18 18.58L164.18 18.58L162.19 18.58ZM162.19 15.31L162.19 16.94L163.82 16.94Q165.02 16.94 165.02 16.12L165.02 16.12Q165.02 15.31 163.82 15.31L163.82 15.31L162.19 15.31ZM174.92 22L172.54 22L172.54 13.60L174.92 13.60L174.92 22ZM182.43 22L180.10 22L180.10 13.60L182.05 13.60L185.76 18.07L185.76 13.60L188.09 13.60L188.09 22L186.14 22L182.43 17.52L182.43 22ZM194.67 22L192.24 22L195.95 13.60L198.30 13.60L202.01 22L199.54 22L198.88 20.37L195.33 20.37L194.67 22ZM197.11 15.93L196.02 18.61L198.19 18.61L197.11 15.93ZM208.54 22L206.17 22L206.17 13.60L210.01 13.60Q211.15 13.60 211.99 13.98Q212.83 14.35 213.28 15.06Q213.74 15.76 213.74 16.71L213.74 16.71Q213.74 17.62 213.31 18.30Q212.89 18.98 212.10 19.36L212.10 19.36L213.91 22L211.36 22L209.84 19.77L208.54 19.77L208.54 22ZM208.54 15.47L208.54 17.93L209.86 17.93Q210.60 17.93 210.97 17.61Q211.34 17.29 211.34 16.71L211.34 16.71Q211.34 16.12 210.97 15.79Q210.60 15.47 209.86 15.47L209.86 15.47L208.54 15.47ZM220.91 22L218.53 22L218.53 13.60L220.91 13.60L220.91 22ZM232.83 22L226.08 22L226.08 13.60L232.67 13.60L232.67 15.44L228.44 15.44L228.44 16.85L232.17 16.85L232.17 18.63L228.44 18.63L228.44 20.17L232.83 20.17L232.83 22ZM237.04 21.24L237.04 21.24L237.82 19.49Q238.39 19.86 239.13 20.09Q239.87 20.32 240.60 20.32L240.60 20.32Q241.96 20.32 241.97 19.64L241.97 19.64Q241.97 19.28 241.58 19.11Q241.19 18.93 240.32 18.74L240.32 18.74Q239.37 18.53 238.74 18.30Q238.10 18.06 237.65 17.55Q237.19 17.03 237.19 16.16L237.19 16.16Q237.19 15.39 237.61 14.77Q238.03 14.15 238.86 13.79Q239.70 13.43 240.91 13.43L240.91 13.43Q241.73 13.43 242.54 13.62Q243.34 13.80 243.96 14.17L243.96 14.17L243.23 15.93Q242.03 15.28 240.89 15.28L240.89 15.28Q240.19 15.28 239.86 15.49Q239.54 15.70 239.54 16.04L239.54 16.04Q239.54 16.37 239.92 16.54Q240.31 16.71 241.16 16.89L241.16 16.89Q242.12 17.10 242.75 17.33Q243.38 17.56 243.84 18.07Q244.30 18.58 244.30 19.46L244.30 19.46Q244.30 20.21 243.89 20.83Q243.47 21.44 242.63 21.80Q241.78 22.17 240.58 22.17L240.58 22.17Q239.56 22.17 238.60 21.92Q237.64 21.67 237.04 21.24Z" fill="#FFFFFF" x="57.31"/></svg>